<svg xmlns="http://www.w3.org/2000/svg" viewBox="0 0 128 113.75"><path fill-rule="evenodd" d="M63.9 54.5 35.75 23.55c1.1-1.1 2.35-1.95 3.8-2.55 1.45-.65 3.05-.95 4.7-1 1.75.05 3.4.4 4.85 1.1 1.5.65 2.75 1.6 3.85 2.8L63.9 35.85 74.75 23.9c1.15-1.2 2.45-2.15 3.95-2.8 1.5-.7 3.1-1.05 4.85-1.1 1.65.05 3.25.35 4.7 1 1.45.6 2.7 1.45 3.8 2.55L63.9 54.5ZM63.9 59.2l28.15 30.95c-1.1 1.1-2.35 1.95-3.8 2.55-1.45.65-3.05.95-4.7.95-1.75 0-3.4-.35-4.85-1.05-1.5-.65-2.75-1.6-3.85-2.8L63.9 77.85 53.05 89.8c-1.15 1.2-2.45 2.15-3.95 2.8-1.5.7-3.1 1.05-4.85 1.05-1.65 0-3.25-.3-4.7-.95-1.45-.6-2.7-1.45-3.8-2.55L63.9 59.2Z"/><path fill="#e57000" fill-rule="evenodd" d="M61.55 56.85 40.35 33.6c-1.25-1.3-2.7-2.35-4.3-3.1-1.65-.75-3.45-1.1-5.35-1.15-1.8 0-3.5.35-5.1 1.05-1.6.7-3 1.65-4.2 2.8l21.55 23.65L21.4 80.5c1.2 1.2 2.6 2.15 4.2 2.85 1.6.7 3.3 1.05 5.1 1.05 1.9 0 3.7-.4 5.35-1.15 1.65-.75 3.1-1.75 4.3-3.1l21.2-23.3ZM66.25 56.85l21.2-23.25c1.25-1.3 2.7-2.35 4.3-3.1 1.65-.75 3.45-1.1 5.35-1.15 1.8 0 3.5.35 5.1 1.05 1.6.7 3 1.65 4.2 2.8L84.85 56.85 106.4 80.5c-1.2 1.2-2.6 2.15-4.2 2.85-1.6.7-3.3 1.05-5.1 1.05-1.9 0-3.7-.4-5.35-1.15s-3.1-1.75-4.3-3.1l-21.2-23.3Z"/></svg>
